<svg width="20" height="20" viewBox="0 0 20 20" fill="none" xmlns="http://www.w3.org/2000/svg">
<circle cx="10" cy="10" r="10" fill="#FF6964"/>
<path d="M10.7076 11.249H9.31579L9.02339 6H11L10.7076 11.249ZM9 13.0867C9 12.7492 9.09747 12.5144 9.2924 12.3824C9.48733 12.243 9.72515 12.1733 10.0058 12.1733C10.2788 12.1733 10.5127 12.243 10.7076 12.3824C10.9025 12.5144 11 12.7492 11 13.0867C11 13.4094 10.9025 13.6442 10.7076 13.7909C10.5127 13.9303 10.2788 14 10.0058 14C9.72515 14 9.48733 13.9303 9.2924 13.7909C9.09747 13.6442 9 13.4094 9 13.0867Z" fill="white"/>
</svg>
